<svg id="Layer_1" data-name="Layer 1" xmlns="http://www.w3.org/2000/svg" viewBox="0 0 902.78 1404.49"><defs><style>.cls-1{fill:#5c5d67;}.cls-2{fill:#5f606a;}.cls-3{fill:#51535d;}.cls-4{fill:#565862;}.cls-5{fill:#343642;}.cls-6{fill:#7a7b83;}.cls-7{fill:#aaabb1;}.cls-8{fill:#5c5e67;}.cls-9{fill:#5e6069;}.cls-10{fill:#434550;}.cls-11{fill:#f1f1f3;}.cls-12{fill:#3c3e49;}.cls-13{fill:#ebebed;}.cls-14{fill:#6f7179;}.cls-15{fill:#aaabb0;}.cls-16{fill:#8d8e95;}.cls-17{fill:#afb1b5;}.cls-18{fill:#bdbdc1;}.cls-19{fill:#a7a7ad;}.cls-20{fill:#b9bbbf;}.cls-21{fill:#b1b1b6;}.cls-22{fill:#c6c6ca;}.cls-23{fill:#b5b5ba;}.cls-24{font-size:169.4px;}.cls-24,.cls-28{font-family:Raleway;}.cls-25{letter-spacing:-0.06em;}.cls-26{letter-spacing:-0.07em;}.cls-27{letter-spacing:-0.03em;}.cls-28{font-size:246.42px;}.cls-29{letter-spacing:-0.03em;}</style></defs><title>logowp-pion</title><path d="M408.78,14.36c90.1-8.69,182.41,11.75,261.28,55.92,77.49,43,141.81,109,183.86,186.9C876.78,299.63,890.5,346.52,898,394c7.75,49.26,8.62,99.71,1.28,149.07-6.45,42.66-18,84.72-36.06,124-31.87,70.19-82.37,131.64-144.46,177.24a454.84,454.84,0,0,1-230.91,86.47c-12.82.77-25.83,1.34-38.54-.87,4.1-2.09,9-1.48,13.42-2.12,55.4-3.41,110.46-15.67,161.39-37.93,5.19-.86,9.28-4.44,14.22-6,2.91-1.89,6.45-2.61,9.17-4.87-8.45,2.68-16.3,7.2-24.39,10.9-39.32,16.69-81.39,26.29-123.75,31a463,463,0,0,1-95.55-.13c-9.78-.94-19.44-2.79-29.19-3.88a21,21,0,0,1,4.19,0c96.37,14.25,197.33-3.58,282.66-50.71,95-52.08,170-139.91,205.89-242.19l-1.76,1.24a410.63,410.63,0,0,1-53.76,103.23,22.46,22.46,0,0,1-4.54,5.18,458.14,458.14,0,0,0,67.91-140.14c.51-.87,0-2.68,1.29-2.88.06.58.16,1.74.22,2.31,1.68-1.45,1.36-4.46,2.36-6.42l-1.52.07c3.6,2.57-3.34,3.9-.67.89.4-1.68.72-3.4,1-5.09a15.27,15.27,0,0,0,1.93,3.85c-.18-1-.55-3-.73-4.06q2.46-.95.93-4.2l2.13.54c-2-2.22.36-5,.24-7.53l-1.54.36c8.79-35,12.4-71.17,12.6-107.21l.91,0q-.12-15.79-.86-31.56l-2.06.64c.6-.81,1.22-1.61,1.86-2.39a77.13,77.13,0,0,1-.65-10.84c-2.28,2.5-.7,6.13-1.27,9.15-.23-3.26-1.79-7.7.76-10.25-.59-5.29-.7-10.76-2.3-15.84-.3,2.23-.2,4.54-.93,6.69-.13-2.65-.43-5.61,1.16-7.91-.25-2.19-.53-4.37-.88-6.52-.93,1.81-.67,3.87-.71,5.84l-.87.09c.2-2.22-.17-4.77,1.54-6.5-.29-1.58-.61-3.13-1-4.68a23.78,23.78,0,0,0-1.15,8.51c.69,7.92,1.87,15.81,2.29,23.76l-.7.31-.66-.05c-1.68-6.76-1-14.26-3.76-20.7,0-1.45-.1-2.9-.12-4.34-1.42-1.41-1-3.35-.67-5.11-.43,1.15-.9,2.27-1.42,3.38a441.21,441.21,0,0,0-43.53-136.25c-11.94-23.44-25.65-46.07-42-66.67-6.48-8.27-13.52-16.09-20.24-24.11.38,2.52,3.17,4.4,4.76,6.4a431.74,431.74,0,0,1,32,42.23l-1,.55,1.42-.2a11.61,11.61,0,0,1,2.1,5.08l1.32-.29-1.06,1.79,1.58-.49a4.07,4.07,0,0,0,.76,3.28A457.25,457.25,0,0,1,875.75,367.6c3.87,17.26,7.18,34.71,8.48,52.37,1.13-6-.72-11.93-1.15-17.86l1.52.85c4.58,36.17,5.57,72.86,1.57,109.13l-.78,1.25c.1,3,.56,6.21-.87,9,0,2.19-.09,4.38-.22,6.57l-1.25-.14c.05,2.65,1.38,6.33-.9,8.39.14,1.6.3,3.21.49,4.82-.61-1.07-1.21-2.14-1.79-3.2.25,3,.5,6,.74,9-.58-1-1.15-1.91-1.7-2.84-.29,2.84,1.91,7.08-.79,9.14.14,1.56.3,3.12.48,4.7l-1.31-3.42a31.77,31.77,0,0,0-1,12.46l-1.39-.24c.13,1.48.26,3,.41,4.47l-1.37-.78c-.59,2-1.21,3.91-1.83,5.87l1.15-.13c0,.95-.07,1.92-.08,2.89l-1.59-.5c.32,1.71.69,3.43,1.09,5.15a32.94,32.94,0,0,1-1.43-3.24,464.41,464.41,0,0,1-16.61,50.37c.72,2.07.92,5.3-1.46,6.35,0,3-1.7,5.51-2.77,8.17-.86,1.92-1.33,4.08-2.8,5.68.57-1.94,1.31-3.84,2-5.71C847.42,648.38,847,653,845,656.2c1-.55,2-1.12,3-1.7C831.64,690,811.34,723.88,786.26,754A429.33,429.33,0,0,1,622.68,877.2c-6.24,2.56-12.37,5.55-18.93,7.18,9.54-4,18.66-8.89,28-13.34l-1.88-1.31,2.64.68c10.36-5.82,20.91-11.52,30.32-18.83-7.82,3.34-15.27,7.49-23.12,10.75,7-4.44,14.46-8,21.41-12.49,34.54-21,66.76-46.1,94.32-75.75,11.81-13.12,23.31-26.86,31.4-42.64-8.15,7.86-15.59,16.46-23.93,24.15-8.44,7.5-16.3,15.85-26,21.78,3.13-4.71,7.65-8.22,11.28-12.51a437.15,437.15,0,0,0,67.59-95.37,403.78,403.78,0,0,0,17.54-36.58c2.38-5,3.35-10.46,5.43-15.56a441.57,441.57,0,0,0,19.79-73c.46-2.85,1.31-5.75.59-8.64l1.06,0c0-1.87,0-3.75.06-5.61,1.42-1.52.84-3.81,1.3-5.67,1-6.35,1.76-12.72,2.33-19.12.07-1.5.5-3.2-.73-4.35l1.19.18a48.82,48.82,0,0,1,.66-8.1c1.68-6.75.3-13.74.93-20.6.79-6.29-.8-12.61.19-18.88.77-5.45,1.09-11-.15-16.42-1.81-11.22-2.63-22.57-4.35-33.81-3.64-27.86-10.79-55.12-19.27-81.87q-4.07-12.88-9.06-25.45c-.52-1.41-2.07-2.09-2.66-3.44a422.91,422.91,0,0,0-44.06-78.08c-7.28-9.64-14.17-19.57-21.65-29.06-5-6.49-9.63-13.44-16-18.7l-.42,1.81c-10.09-10.52-20.22-21.07-31.51-30.32-31.78-26.69-67-49.43-105.1-66-32.46-13.48-66.24-24-101-29.41-5.38-.86-10.63-2.46-16-3.11-29-1.55-58.09-4.23-87.12-1.73C391.58,41.71,375,42.84,359,46.8a424.38,424.38,0,0,0-132,52.81A432.06,432.06,0,0,0,139.34,171c-1.38,1.35-3.49,1.68-4.75,3.17-6.69,8.32-13.59,16.48-20.44,24.66-12.5,17.9-26.72,34.84-36.21,54.63-3.17,6.2-6.26,12.44-9.87,18.4C53.76,297.09,44.53,324.77,37,352.64a431.14,431.14,0,0,0-15.07,85.69Q20.1,465,19.32,491.78c-5-65.74,7.5-132,30.9-193.36,3-8.76,7.34-17.08,10.24-25.82-1.74,1.44-1.71,3.86-2.71,5.75C33.08,329.14,19.32,384.87,14.58,441c-.95,10.42-1.54,20.88-2.48,31.31-.31,2.47-.28,5.13-1.72,7.28-2-9.91-1.41-20.08-1.33-30.11A415.83,415.83,0,0,1,19.17,371C25,343,34.71,316.13,44.59,289.43c-9,18.06-15.41,37.29-22.55,56.14.69-4.45,2.11-8.79,2.45-13.29-9.33,25.16-15.36,51.46-19.43,78a42.54,42.54,0,0,0-.83,9.22c-.62-5.71,1-11.3,1.73-16.92A480.22,480.22,0,0,1,67.19,232.87c31.21-52.18,72.54-98.44,121.54-134.5C252.6,51,329.54,21.39,408.78,14.36Zm50.39,3.43c1.09,1.31,5.08,1.38,6.18,0A8.26,8.26,0,0,0,459.17,17.79Zm10.92-.17c.26,1.3,1,1.52,2.25.65C472.06,17,471.31,16.75,470.09,17.62Zm4.1,0c.2,1.34.91,1.56,2.14.67C476.11,17,475.4,16.72,474.19,17.61Zm3.93.95,20.41,1.66a28.05,28.05,0,0,0,7.09,1.84,429.79,429.79,0,0,1,56.15,11.77c70,19.18,134.35,57,186.82,106.85a188.43,188.43,0,0,0,13.64,13.47,12.82,12.82,0,0,1,2.29,3.06,9.64,9.64,0,0,0-1.71-3.63,339.32,339.32,0,0,0-31-30.23C688.39,86.12,637.56,58,583.88,38.63c-22-7.87-45.07-12.33-68-16.54-3.49-.35-7-.72-10.49-.77A28.31,28.31,0,0,1,498.53,20.22Zm386,353.89c-.45.13-.22.54.31.55-.27,2.14.17,4.29.49,3.58.54,3.2.62,7.08,1.12,5.83.28,3,1.17,6.05,1.69,4.53C883.47,359.53,880.44,354.6,884.48,374.11Zm-.06,45.34c.73,3.52-.67,7.88,1.62,10.85-.23-3.36-.19-6.73-.41-10.08Zm2.66,44.35c-.72,1.43-1,4.34.36,5.27C888.11,467.62,888.55,464.64,887.08,463.8ZM886,491.87c-.91,1.21-.7,2,.61,2.28C887.43,492.93,887.23,492.17,886,491.87Zm12,41.84c-1.55,2.24-.72,5.18-1.32,7.72a461.1,461.1,0,0,1-18.34,72.23c-2.22,7-5.26,13.68-7.3,20.73,12.39-30.87,23.94-62.68,26.47-96.11C897.3,536.69,898.69,535.27,898,533.71Zm-25,44.61,1.79,20.94c1.83-.69,2.14-4.06,2-5.85C875.22,594.35,874.5,597.45,874.77,599.26Zm-.88,1.59-.44.93C874.44,603.87,876.05,599.89,873.89,600.85Zm-1.29,2.78c-.83,6.85-4.91,13-5.69,19.74,1.52.24,1.23-2,1.82-2.86,1.9-5.8,3.9-11.56,5.6-17.42ZM855.24,633c-.93,1.43-1.41,3.11-2.36,4.54A2.25,2.25,0,0,0,855,637C855.45,635.88,856.22,633.86,855.24,633Zm-6,47.82A471.62,471.62,0,0,1,700.75,847.51c-14.8,11.75-31.43,20.91-48,29.94,3.57-1.12,6.79-3.07,10.1-4.76,77.26-40.41,140.91-105.27,182.19-181.86,9.18-17.6,18-35.49,24.57-54.24A398,398,0,0,1,849.26,680.86Zm4-42.16-1.5,1.82c-.39,1.06-1.72,3.65-.35,4.18.33-.68,1-2,1.3-2.72C852.9,640.92,852.58,640.44,851.77,640.52ZM850,645.34m-5,11.37-.87,2.12-1.67,2.07-.76,2.15C843.34,665,844.87,659.33,842.48,660.9Zm-1.58,2.93a31,31,0,0,1-2.26,5.46c-5.61,10.9-11.55,21.62-18,32.05-3.95,6.83-8.76,13.12-12.67,20,8.49-12.18,16.59-24.65,23.89-37.6,3.54-6,6.4-12.34,10.14-18.15C841.62,665,841.25,664.4,840.9,663.83Z" transform="translate(-4.09 -12.4)"/><path d="M444,229.81q8.73.27,17.46,0-.17,39.66,0,79.33-8.75-.27-17.48,0Q444.24,269.48,444,229.81Z" transform="translate(-4.09 -12.4)"/><path d="M230.57,297c4.1-4.13,8.23-8.22,12.35-12.35,18.58,18.75,37.43,37.24,55.89,56.1-4.19,4-8.21,8.11-12.3,12.18C267.91,334.28,249.32,315.57,230.57,297Z" transform="translate(-4.09 -12.4)"/><path d="M606.71,340.62q28-27.94,55.91-55.94c4.1,4.14,8.28,8.19,12.33,12.37C656.19,315.57,637.64,334.3,619,353,614.93,348.82,610.78,344.76,606.71,340.62Z" transform="translate(-4.09 -12.4)"/><path d="M353.9,383.69q98.84,0,197.66,0Q581.89,413.9,612,444.32,532.25,576.8,452.77,709.45,373,576.94,293.48,444.28,323.6,413.89,353.9,383.69Zm18.41,18.56c10.29,10.37,20.68,20.65,31,31,10.25-10.38,20.7-20.58,30.93-31Q403.3,402.16,372.31,402.25Zm98.9,0c10.27,10.36,20.72,20.54,30.92,31,10.46-10.23,20.77-20.61,31.1-31Q502.22,402.15,471.21,402.24ZM325.39,436.66q28.42.12,56.86,0c-9.37-9.59-18.94-19-28.45-28.44C344.39,417.77,334.76,427.09,325.39,436.66Zm99,0c18.93.13,37.87.06,56.81,0-9.41-9.55-19-19-28.46-28.42C443.31,417.71,433.71,427,424.42,436.64Zm98.84,0c18.93,0,37.87.1,56.81-.05-9.31-9.6-18.94-18.87-28.33-28.39C542.21,417.68,532.65,427.09,523.26,436.68ZM319.72,454.25q57.34,95.58,114.75,191.12C421.66,581.65,409,517.89,396.15,454.18,370.67,454.28,345.19,454.14,319.72,454.25Zm94.15,0q16.25,81.06,32.46,162.13c2.26,10.38,3.82,20.94,6.53,31.2,13.1-64.39,25.82-128.87,38.81-193.29C465.74,454.13,439.8,454.22,413.87,454.25Zm57.24,191.09q57.27-95.61,114.71-191.09c-25.48-.11-51,0-76.43-.06Q490.1,549.73,471.11,645.34Z" transform="translate(-4.09 -12.4)"/><path d="M888,422.91l1.62.82c1.6,23.23,2.72,46.56,1,69.81.09,10.1-2.05,20-2.32,30.11a31.78,31.78,0,0,1,.6-10.2q1.57-17.88,1.77-35.83c1-5.71-.44-11.41-.1-17.14C890.26,447.93,889.2,435.4,888,422.91Z" transform="translate(-4.09 -12.4)"/><path d="M881.3,571.63c1.34.4.55,2.94-.44,3.5C879.63,574.54,880.5,572.35,881.3,571.63Z" transform="translate(-4.09 -12.4)"/><path d="M38.82,649.33c6.74,14.06,13.41,28.19,21.44,41.56,7.86,11.9,14.75,24.43,23.1,36,39.18,57.46,91.88,105.45,152.23,139.91,3.35,2.13,7.1,3.65,10.19,6.2-42-21.65-80.93-49.73-114-83.64A444.84,444.84,0,0,1,41,655.34,37.07,37.07,0,0,1,38.82,649.33Z" transform="translate(-4.09 -12.4)"/><path d="M734.11,774.72c3.16-3.19,6-6.78,9.67-9.4-7.52,7.25-13.55,16-21.79,22.5-5.36,4-10.69,8.1-16.33,11.73,3-3.17,6.75-5.4,10-8.3C721.65,785.58,728,780.26,734.11,774.72Z" transform="translate(-4.09 -12.4)"/><path d="M241.07,829.61" transform="translate(-4.09 -12.4)"/><path d="M251.07,835.44" transform="translate(-4.09 -12.4)"/><path d="M217,838.64" transform="translate(-4.09 -12.4)"/><path d="M563.67,872.1c13-2.72,25.42-7.69,37.84-12.31-.07.3-.22.9-.29,1.2-7.83,3.62-16.34,5.35-24.48,8.15C572.45,870.37,568.23,872.3,563.67,872.1Z" transform="translate(-4.09 -12.4)"/><path d="M284.2,891.26C295,895,305.42,899.67,316.34,903c15,4.82,30.09,9.36,45.61,12.05-3.76.26-7.42-.72-11.06-1.5C327.73,909.45,305.33,901.48,284.2,891.26Z" transform="translate(-4.09 -12.4)"/><path class="cls-1" d="M459.17,17.79a8.26,8.26,0,0,1,6.18,0C464.25,19.17,460.26,19.1,459.17,17.79Z" transform="translate(-4.09 -12.4)"/><path class="cls-2" d="M470.09,17.62c1.22-.87,2-.66,2.25.65C471.1,19.14,470.35,18.92,470.09,17.62Z" transform="translate(-4.09 -12.4)"/><path class="cls-3" d="M474.19,17.61c1.21-.89,1.92-.66,2.14.67C475.1,19.17,474.39,19,474.19,17.61Z" transform="translate(-4.09 -12.4)"/><path class="cls-4" d="M478.12,18.56" transform="translate(-4.09 -12.4)"/><path class="cls-5" d="M882.6,396.13c1.66,1,1.2,4,.92,5.74l-.31,0A14.88,14.88,0,0,1,882.6,396.13Z" transform="translate(-4.09 -12.4)"/><path class="cls-6" d="M890.38,418.26c-1.15-1.16-1.17-5.08.07-6.21A10.44,10.44,0,0,1,890.38,418.26Z" transform="translate(-4.09 -12.4)"/><path class="cls-7" d="M884.42,419.45l1.21.77c.22,3.35.18,6.72.41,10.08C883.75,427.33,885.15,423,884.42,419.45Z" transform="translate(-4.09 -12.4)"/><path class="cls-8" d="M887.08,463.8c1.47.84,1,3.82.36,5.27C886,468.14,886.36,465.23,887.08,463.8Z" transform="translate(-4.09 -12.4)"/><path class="cls-9" d="M886,491.87c1.28.3,1.48,1.06.61,2.28C885.25,493.84,885,493.08,886,491.87Z" transform="translate(-4.09 -12.4)"/><path class="cls-10" d="M879.68,576.23c1.93-1.53,1.21,2.67-.24,1Z" transform="translate(-4.09 -12.4)"/><path class="cls-11" d="M873,578.32" transform="translate(-4.09 -12.4)"/><path class="cls-12" d="M878.91,579.63" transform="translate(-4.09 -12.4)"/><path class="cls-13" d="M873.89,600.85c2.16-1,.55,3-.44.93Z" transform="translate(-4.09 -12.4)"/><path class="cls-14" d="M848,652.3" transform="translate(-4.09 -12.4)"/><path class="cls-15" d="M198.07,825.67" transform="translate(-4.09 -12.4)"/><path class="cls-16" d="M211.13,834.74" transform="translate(-4.09 -12.4)"/><path class="cls-17" d="M285.05,879.54" transform="translate(-4.09 -12.4)"/><path class="cls-18" d="M314.05,890.6c1.25-.8,2-.56,2.36.74C315.14,892.11,314.35,891.87,314.05,890.6Z" transform="translate(-4.09 -12.4)"/><path class="cls-19" d="M329,891.64c.88-.67,3.38-.76,3.46.65C331.57,892.92,329.09,893,329,891.64Z" transform="translate(-4.09 -12.4)"/><path class="cls-20" d="M323,893.62c1.68-.57,4.82,0,5.57,1.63C326.89,895.8,323.89,895.09,323,893.62Z" transform="translate(-4.09 -12.4)"/><path class="cls-21" d="M339.07,894.61c1.15-.69,3.83-.82,4.37.57C342.26,895.81,339.54,896.09,339.07,894.61Z" transform="translate(-4.09 -12.4)"/><path class="cls-22" d="M331.77,895.87a31.1,31.1,0,0,1,8.3,2.57C337.29,898.08,333.38,898.65,331.77,895.87Z" transform="translate(-4.09 -12.4)"/><path class="cls-23" d="M351.06,897.6c.83-.75,3.27-.84,3.41.54C353.61,898.84,351.15,899,351.06,897.6Z" transform="translate(-4.09 -12.4)"/><text class="cls-24" transform="translate(3.12 1133.67)"><tspan class="cls-25">W</tspan><tspan x="167.7" y="0">ARSZ</tspan><tspan class="cls-26" x="603.9" y="0">TA</tspan><tspan class="cls-27" x="798.87" y="0">T</tspan></text><text class="cls-28" transform="translate(0 1349.3) scale(1.02 1)">PIĘKN<tspan class="cls-29" x="713.86" y="0">A</tspan></text></svg>